<svg width="700" height="700" viewBox="0 0 700 700" fill="none" xmlns="http://www.w3.org/2000/svg">
<path d="M322.371 495.991C323.106 496.853 324.399 496.956 325.259 496.222L330.069 492.113L347.622 512.662L342.773 516.804C341.914 517.538 341.814 518.831 342.549 519.692C343.285 520.554 344.578 520.657 345.437 519.923L395.512 477.149C396.371 476.415 396.471 475.121 395.736 474.26C395 473.399 393.707 473.296 392.848 474.03L388.076 478.106L370.523 457.557L375.333 453.448C376.192 452.714 376.293 451.421 375.557 450.559C374.821 449.698 373.528 449.595 372.669 450.329L322.595 493.103C321.735 493.837 321.635 495.13 322.371 495.991V495.991ZM348.74 476.164L366.293 496.713L360.07 502.029L342.516 481.48L348.74 476.164ZM369.405 494.055L351.852 473.506L358.076 468.189L375.629 488.738L369.405 494.055ZM333.181 489.455L339.405 484.138L356.958 504.687L350.734 510.004L333.181 489.455ZM384.964 480.764L378.741 486.08L361.187 465.531L367.411 460.215L384.964 480.764Z" fill="#333333"/>
<path d="M275.371 535.991C276.106 536.853 277.399 536.956 278.259 536.222L283.069 532.113L300.622 552.662L295.773 556.804C294.914 557.538 294.814 558.831 295.549 559.692C296.285 560.554 297.578 560.657 298.437 559.923L348.512 517.149C349.371 516.415 349.471 515.121 348.736 514.26C348 513.399 346.707 513.296 345.848 514.03L341.076 518.106L323.523 497.557L328.333 493.448C329.192 492.714 329.293 491.421 328.557 490.559C327.821 489.698 326.528 489.595 325.669 490.329L275.595 533.103C274.735 533.837 274.635 535.13 275.371 535.991V535.991ZM301.74 516.164L319.293 536.713L313.07 542.029L295.516 521.48L301.74 516.164ZM322.405 534.055L304.852 513.506L311.076 508.189L328.629 528.738L322.405 534.055ZM286.181 529.455L292.405 524.138L309.958 544.687L303.734 550.004L286.181 529.455ZM337.964 520.764L331.741 526.08L314.187 505.531L320.411 500.215L337.964 520.764Z" fill="#333333"/>
<path d="M228.371 575.991C229.106 576.853 230.399 576.956 231.259 576.222L236.069 572.113L253.622 592.662L248.773 596.804C247.914 597.538 247.814 598.831 248.549 599.692C249.285 600.554 250.578 600.657 251.437 599.923L301.512 557.149C302.371 556.415 302.471 555.121 301.736 554.26C301 553.399 299.707 553.296 298.848 554.03L294.076 558.106L276.523 537.557L281.333 533.448C282.192 532.714 282.293 531.421 281.557 530.559C280.821 529.698 279.528 529.595 278.669 530.329L228.595 573.103C227.735 573.837 227.635 575.13 228.371 575.991V575.991ZM254.74 556.164L272.293 576.713L266.07 582.029L248.516 561.48L254.74 556.164ZM275.405 574.055L257.852 553.506L264.076 548.189L281.629 568.738L275.405 574.055ZM239.181 569.455L245.405 564.138L262.958 584.687L256.734 590.004L239.181 569.455ZM290.964 560.764L284.741 566.08L267.187 545.531L273.411 540.215L290.964 560.764Z" fill="#333333"/>
<path d="M190.178 178.051C189.046 178.051 188.127 178.967 188.127 180.097V186.424H161.102V180.046C161.102 178.916 160.183 178 159.051 178C157.918 178 157 178.916 157 180.046V245.903C157 247.033 157.918 247.949 159.051 247.949C160.183 247.949 161.102 247.033 161.102 245.903V239.627H188.127V245.954C188.127 247.084 189.046 248 190.178 248C191.311 248 192.229 247.084 192.229 245.954V180.097C192.229 178.967 191.311 178.051 190.178 178.051V178.051ZM188.127 210.979H161.102V202.794H188.127V210.979ZM161.102 215.072H188.127V223.257H161.102V215.072ZM188.127 190.516V198.701H161.102V190.516H188.127ZM161.102 235.535V227.35H188.127V235.535H161.102Z" fill="#333333"/>
<path d="M190.178 117.051C189.046 117.051 188.127 117.967 188.127 119.097V125.424H161.102V119.046C161.102 117.916 160.183 117 159.051 117C157.918 117 157 117.916 157 119.046V184.903C157 186.033 157.918 186.949 159.051 186.949C160.183 186.949 161.102 186.033 161.102 184.903V178.627H188.127V184.954C188.127 186.084 189.046 187 190.178 187C191.311 187 192.229 186.084 192.229 184.954V119.097C192.229 117.967 191.311 117.051 190.178 117.051V117.051ZM188.127 149.979H161.102V141.794H188.127V149.979ZM161.102 154.072H188.127V162.257H161.102V154.072ZM188.127 129.516V137.701H161.102V129.516H188.127ZM161.102 174.535V166.35H188.127V174.535H161.102Z" fill="#333333"/>
<path d="M571.009 186.935C570.05 187.537 569.76 188.802 570.361 189.759L573.727 195.115L550.843 209.493L547.45 204.093C546.849 203.136 545.584 202.849 544.625 203.451C543.666 204.054 543.376 205.318 543.977 206.275L579.013 262.039C579.614 262.996 580.879 263.283 581.838 262.68C582.797 262.078 583.087 260.814 582.486 259.857L579.148 254.543L602.031 240.165L605.397 245.522C605.998 246.479 607.263 246.766 608.222 246.164C609.181 245.561 609.471 244.297 608.87 243.34L573.834 187.576C573.233 186.62 571.968 186.332 571.009 186.935V186.935ZM586.79 215.908L563.907 230.285L559.552 223.355L582.436 208.977L586.79 215.908ZM566.084 233.751L588.968 219.373L593.322 226.304L570.439 240.682L566.084 233.751ZM575.904 198.581L580.259 205.511L557.375 219.889L553.02 212.958L575.904 198.581ZM576.97 251.078L572.616 244.147L595.5 229.769L599.854 236.7L576.97 251.078Z" fill="#333333"/>
<path d="M538.557 135.284C537.598 135.886 537.308 137.15 537.909 138.107L541.275 143.464L518.391 157.842L514.998 152.442C514.397 151.485 513.132 151.198 512.173 151.8C511.214 152.403 510.924 153.667 511.525 154.624L546.561 210.387C547.162 211.344 548.427 211.632 549.386 211.029C550.345 210.426 550.635 209.162 550.034 208.205L546.695 202.892L569.579 188.514L572.945 193.871C573.546 194.828 574.811 195.115 575.77 194.512C576.729 193.91 577.019 192.645 576.418 191.689L541.382 135.925C540.781 134.968 539.516 134.681 538.557 135.284V135.284ZM554.338 164.256L531.454 178.634L527.1 171.703L549.984 157.325L554.338 164.256ZM533.632 182.099L556.516 167.722L560.87 174.652L537.986 189.03L533.632 182.099ZM543.452 146.929L547.807 153.86L524.923 168.238L520.568 161.307L543.452 146.929ZM544.518 199.426L540.164 192.496L563.047 178.118L567.402 185.049L544.518 199.426Z" fill="#333333"/>
<path d="M505.573 82.7855C504.614 83.388 504.323 84.6523 504.925 85.6092L508.29 90.9659L485.406 105.344L482.014 99.9438C481.413 98.9869 480.148 98.6996 479.189 99.3021C478.23 99.9047 477.94 101.169 478.541 102.126L513.577 157.889C514.178 158.846 515.443 159.133 516.402 158.531C517.361 157.928 517.651 156.664 517.05 155.707L513.711 150.394L536.595 136.016L539.96 141.373C540.562 142.329 541.827 142.617 542.786 142.014C543.745 141.412 544.035 140.147 543.433 139.191L508.398 83.4272C507.796 82.4702 506.532 82.183 505.573 82.7855V82.7855ZM521.354 111.758L498.47 126.136L494.116 119.205L516.999 104.827L521.354 111.758ZM500.647 129.601L523.531 115.224L527.886 122.154L505.002 136.532L500.647 129.601ZM510.468 94.4313L514.822 101.362L491.938 115.74L487.584 108.809L510.468 94.4313ZM511.534 146.928L507.179 139.998L530.063 125.62L534.418 132.551L511.534 146.928Z" fill="#333333"/>
<path d="M473.12 31.1342C472.161 31.7367 471.871 33.001 472.473 33.9579L475.838 39.3146L452.954 53.6924L449.562 48.2925C448.96 47.3356 447.695 47.0483 446.736 47.6508C445.777 48.2534 445.487 49.5176 446.089 50.4745L481.124 106.238C481.726 107.195 482.991 107.482 483.95 106.88C484.909 106.277 485.199 105.013 484.597 104.056L481.259 98.7423L504.143 84.3645L507.508 89.7213C508.11 90.6782 509.374 90.9654 510.333 90.3629C511.292 89.7604 511.583 88.4961 510.981 87.5392L475.946 31.7758C475.344 30.8189 474.079 30.5317 473.12 31.1342V31.1342ZM488.902 60.1069L466.018 74.4847L461.663 67.5539L484.547 53.1761L488.902 60.1069ZM468.195 77.9501L491.079 63.5723L495.434 70.5031L472.55 84.8809L468.195 77.9501ZM478.015 42.78L482.37 49.7108L459.486 64.0886L455.132 57.1578L478.015 42.78ZM479.082 95.277L474.727 88.3462L497.611 73.9684L501.965 80.8992L479.082 95.277Z" fill="#333333"/>
<path d="M561.895 460.096C560.861 459.633 559.649 460.093 559.186 461.124L556.598 466.897L531.938 455.838L534.547 450.019C535.01 448.988 534.547 447.777 533.513 447.313C532.48 446.85 531.267 447.31 530.805 448.341L503.858 508.432C503.395 509.463 503.858 510.675 504.892 511.138C505.925 511.602 507.138 511.142 507.6 510.11L510.168 504.384L534.828 515.443L532.239 521.215C531.777 522.246 532.24 523.458 533.273 523.921C534.307 524.385 535.519 523.925 535.982 522.893L562.929 462.802C563.391 461.771 562.928 460.56 561.895 460.096V460.096ZM546.55 489.303L521.89 478.244L525.239 470.776L549.899 481.834L546.55 489.303ZM520.216 481.979L544.875 493.037L541.526 500.506L516.866 489.447L520.216 481.979ZM554.923 470.631L551.574 478.1L526.914 467.041L530.263 459.573L554.923 470.631ZM511.843 500.65L515.192 493.182L539.852 504.24L536.502 511.708L511.843 500.65Z" fill="#333333"/>
<path d="M586.855 404.436C585.821 403.973 584.609 404.433 584.146 405.464L581.558 411.237L556.898 400.179L559.507 394.36C559.97 393.328 559.507 392.117 558.473 391.653C557.44 391.19 556.227 391.65 555.765 392.681L528.818 452.772C528.355 453.804 528.818 455.015 529.852 455.479C530.885 455.942 532.098 455.482 532.56 454.451L535.128 448.725L559.788 459.783L557.199 465.555C556.737 466.587 557.2 467.798 558.233 468.262C559.267 468.725 560.479 468.265 560.942 467.234L587.889 407.143C588.351 406.111 587.888 404.9 586.855 404.436V404.436ZM571.51 433.643L546.85 422.584L550.199 415.116L574.859 426.174L571.51 433.643ZM545.176 426.319L569.835 437.377L566.486 444.846L541.826 433.788L545.176 426.319ZM579.883 414.971L576.534 422.44L551.874 411.382L555.223 403.913L579.883 414.971ZM536.803 444.99L540.152 437.522L564.812 448.58L561.462 456.049L536.803 444.99Z" fill="#333333"/>
<path d="M610.996 350.602C609.962 350.138 608.75 350.598 608.287 351.63L605.699 357.402L581.039 346.344L583.648 340.525C584.111 339.494 583.648 338.282 582.614 337.818C581.581 337.355 580.368 337.815 579.906 338.846L552.959 398.938C552.497 399.969 552.96 401.18 553.993 401.644C555.026 402.107 556.239 401.647 556.701 400.616L559.269 394.89L583.929 405.948L581.34 411.721C580.878 412.752 581.341 413.963 582.374 414.427C583.408 414.89 584.621 414.43 585.083 413.399L612.03 353.308C612.492 352.277 612.029 351.065 610.996 350.602V350.602ZM595.651 379.808L570.991 368.75L574.341 361.281L599 372.339L595.651 379.808ZM569.317 372.484L593.977 383.542L590.627 391.011L565.968 379.953L569.317 372.484ZM604.024 361.136L600.675 368.605L576.015 357.547L579.364 350.078L604.024 361.136ZM560.944 391.156L564.293 383.687L588.953 394.745L585.604 402.214L560.944 391.156Z" fill="#333333"/>
<path d="M635.956 294.942C634.922 294.478 633.71 294.939 633.247 295.97L630.659 301.742L605.999 290.684L608.608 284.865C609.071 283.834 608.608 282.622 607.574 282.159C606.541 281.695 605.328 282.155 604.866 283.187L577.919 343.278C577.457 344.309 577.919 345.521 578.953 345.984C579.986 346.447 581.199 345.987 581.661 344.956L584.229 339.23L608.889 350.288L606.3 356.061C605.838 357.092 606.301 358.304 607.334 358.767C608.368 359.23 609.58 358.77 610.043 357.739L636.99 297.648C637.452 296.617 636.989 295.405 635.956 294.942V294.942ZM620.611 324.148L595.951 313.09L599.301 305.621L623.96 316.679L620.611 324.148ZM594.277 316.824L618.936 327.882L615.587 335.351L590.928 324.293L594.277 316.824ZM628.984 305.477L625.635 312.945L600.975 301.887L604.324 294.418L628.984 305.477ZM585.904 335.496L589.253 328.027L613.913 339.085L610.564 346.554L585.904 335.496Z" fill="#333333"/>
<path d="M660.915 239.282C659.882 238.819 658.669 239.279 658.207 240.31L655.618 246.082L630.958 235.024L633.568 229.205C634.03 228.174 633.567 226.962 632.534 226.499C631.5 226.035 630.288 226.496 629.825 227.527L602.878 287.618C602.416 288.649 602.879 289.861 603.912 290.324C604.946 290.788 606.158 290.327 606.621 289.296L609.189 283.57L633.848 294.629L631.26 300.401C630.797 301.432 631.26 302.644 632.294 303.107C633.327 303.571 634.54 303.11 635.002 302.079L661.949 241.988C662.412 240.957 661.949 239.745 660.915 239.282V239.282ZM645.571 268.488L620.911 257.43L624.26 249.961L648.92 261.02L645.571 268.488ZM619.236 261.164L643.896 272.223L640.547 279.691L615.887 268.633L619.236 261.164ZM653.944 249.817L650.594 257.285L625.935 246.227L629.284 238.758L653.944 249.817ZM610.863 279.836L614.212 272.367L638.872 283.426L635.523 290.894L610.863 279.836Z" fill="#333333"/>
<path d="M685.875 183.622C684.842 183.159 683.629 183.619 683.167 184.65L680.578 190.423L655.918 179.364L658.528 173.545C658.99 172.514 658.527 171.303 657.494 170.839C656.46 170.376 655.248 170.836 654.785 171.867L627.838 231.958C627.376 232.989 627.839 234.201 628.872 234.664C629.906 235.128 631.118 234.668 631.581 233.636L634.149 227.91L658.808 238.969L656.22 244.741C655.757 245.772 656.22 246.984 657.254 247.447C658.287 247.911 659.5 247.451 659.962 246.419L686.909 186.328C687.372 185.297 686.909 184.086 685.875 183.622V183.622ZM670.531 212.829L645.871 201.77L649.22 194.302L673.88 205.36L670.531 212.829ZM644.196 205.505L668.856 216.563L665.507 224.032L640.847 212.973L644.196 205.505ZM678.904 194.157L675.554 201.626L650.895 190.567L654.244 183.099L678.904 194.157ZM635.823 224.176L639.172 216.708L663.832 227.766L660.483 235.234L635.823 224.176Z" fill="#333333"/>
<path d="M658.155 387.628C662.032 384.244 664.95 381.446 668.223 385.039C668.245 385.064 668.267 385.09 668.289 385.115C668.311 385.14 668.334 385.164 668.362 385.192C671.484 388.644 668.984 391.899 665.794 396.035C663.954 398.413 665.245 402.179 661.191 406.491C655.826 412.196 652.216 407.725 649.725 404.857C647.112 402.112 643.043 398.131 648.408 392.426C652.462 388.113 655.921 389.574 658.155 387.628" fill="#333333"/>
<path d="M655.355 398.75C654.443 397.288 647.072 403.436 646.208 404.182C643.135 406.83 640.432 409.874 638.279 413.418C632.922 421.91 634.596 431.612 638.012 439.59C641.511 447.76 647.015 455.547 647.654 465.042C648.183 472.894 646.21 482.522 641.19 489.011C634.944 497.078 624.812 499.895 616.023 501.711C606.081 503.767 596.069 504.628 586.11 506.39C566.998 509.769 547.098 517.507 540.003 539.681C535.052 556.796 539.585 575.098 548.8 588.072C554.215 595.694 561.983 602.084 571.49 602.696C578.619 603.154 586.289 599.824 591.498 593.868C591.807 593.509 594.25 590.487 593.016 590.627C591.846 590.76 590.578 591.776 589.505 592.35C586.174 594.181 582.852 595.622 579.252 596.32C571.612 597.585 564.882 593.745 560.028 588.241C550.312 577.234 544.743 558.429 549.873 542.478C557.618 520.639 582.252 519.049 599.813 516.561C617.661 514.033 638.943 511.394 650.775 493.399C657.927 481.681 659.436 465.823 654.993 453.915C651.646 444.946 645.096 437.836 642.324 428.588C639.83 420.33 644.17 412.791 649.505 406.357C650.195 405.526 655.995 399.775 655.355 398.75C655.462 398.92 655.25 398.582 655.355 398.75Z" fill="#333333"/>
<path d="M173.444 27.2566C170.793 26.0663 168.772 25.0317 167.255 27.6135L167.255 27.6138C167.244 27.6324 167.234 27.6498 167.224 27.6675C167.213 27.6867 167.202 27.7034 167.191 27.7232L167.191 27.7235C165.743 30.2026 167.57 31.5683 169.9 33.2991C171.243 34.295 170.906 36.6194 173.763 38.2943C177.542 40.5112 179.161 37.3787 180.302 35.338C181.525 33.3462 183.469 30.4037 179.689 28.1877C176.833 26.5123 174.968 27.9418 173.444 27.2566" fill="#333333"/>
<path d="M245.531 199.448C243.793 200.201 261.735 167.124 265.835 159.409C269.936 151.695 277.546 132.322 272.232 124.935C266.919 117.548 225.226 114.206 211.022 105.84C198.585 98.4906 201.949 83.2033 210.396 74.1314C218.977 64.9145 231.804 59.8326 238.965 49.2305C247.095 37.1951 240.166 31.1954 227.578 35.2103C216.182 38.8448 212.563 45.4812 198.684 44.8897C184.804 44.2982 178.115 36.0954 177.776 35.5047C176.729 33.6921 179.32 33.7431 179.32 33.7431C179.32 33.7431 188.182 35.1807 197.484 36.4101C206.786 37.6395 225.391 20.9552 241.353 24.156C254.354 26.7812 254.223 42.2285 249.452 51.7293C243.179 64.2644 230.183 70.234 220.391 79.409C213.415 85.9441 209.778 95.3476 221.561 98.2087C245.958 104.132 284.657 111.503 284.26 128.624C283.863 145.745 265.623 174.388 263.667 176.291C261.711 178.195 247.269 198.695 245.531 199.448Z" fill="#333333"/>
<path d="M417.869 337.964C412.991 338.897 408.161 341.115 403.699 344.248C403.7 344.241 403.7 344.238 403.698 344.24C403.919 373.315 439.293 390.314 437.009 354.319C436.06 339.546 426.228 336.368 417.869 337.964C418.76 337.793 417.603 338.014 417.869 337.964ZM450.735 254L452.702 256.698C452.702 256.698 416.065 290.877 407.303 320.484C408.046 320.205 417.869 317.274 417.869 318.351C416.648 318.39 426.138 318.677 429.702 320.333C433.267 321.988 438.691 325.143 440.093 327.208C441.495 329.273 448.423 337.101 449.878 347.89C451.333 358.68 449.047 370.629 449.445 371.175C440.981 415.895 396.96 392.073 391.354 356.93C382.413 370.417 390.431 382.333 399.429 387.622C413.413 395.818 459.348 395.92 442.543 431.687C434.805 448.155 425.036 472.753 445.306 479.257C455.467 482.516 469.383 479.178 476.374 492.963C484.81 509.589 457.614 521.331 458.829 525C456.283 517.302 483.682 499.51 463.578 491.121C453.895 487.056 441.756 492.567 432.564 485.696C426.762 481.005 423.625 474.318 422.889 468.073C422.153 461.829 422.177 457.695 423.895 446.904C425.612 436.112 434.339 425.428 432.759 420.176C431.594 416.284 405.9 410.481 400.029 407.801C394.157 405.122 382.797 398.477 377.675 387.131C374.379 379.744 373.157 370.87 374.595 362.196C377.356 345.975 389.526 340.313 391.915 326.172C398.423 287.659 450.735 254 450.735 254Z" fill="#333333"/>
<path d="M437.549 263.294C437.549 263.294 435.463 253.155 447.647 249.272C459.998 245.332 471.745 249.874 471.745 249.874C471.745 249.874 474.149 251.694 473.655 253.74C473.012 256.404 453.182 270.325 441.021 269.408C441.021 269.408 437.976 266.375 437.549 263.294Z" fill="#333333"/>
<path d="M210.26 394.371C209.399 395.106 209.296 396.399 210.03 397.259L214.139 402.069L193.59 419.622L189.448 414.773C188.714 413.914 187.42 413.814 186.559 414.549C185.698 415.285 185.595 416.578 186.329 417.437L229.103 467.512C229.837 468.371 231.13 468.471 231.991 467.736C232.853 467 232.956 465.707 232.222 464.848L228.146 460.076L248.695 442.523L252.804 447.333C253.538 448.192 254.831 448.293 255.692 447.557C256.554 446.821 256.657 445.528 255.923 444.669L213.149 394.595C212.415 393.735 211.122 393.635 210.26 394.371V394.371ZM230.088 420.74L209.539 438.293L204.222 432.07L224.772 414.516L230.088 420.74ZM212.197 441.405L232.746 423.852L238.063 430.076L217.513 447.629L212.197 441.405ZM216.797 405.181L222.114 411.404L201.564 428.958L196.248 422.734L216.797 405.181ZM225.488 456.964L220.171 450.741L240.721 433.187L246.037 439.411L225.488 456.964Z" fill="#333333"/>
<path d="M170.26 347.371C169.399 348.106 169.296 349.399 170.03 350.259L174.139 355.069L153.59 372.622L149.448 367.773C148.714 366.914 147.42 366.814 146.559 367.549C145.698 368.285 145.595 369.578 146.329 370.437L189.103 420.512C189.837 421.371 191.13 421.471 191.991 420.736C192.853 420 192.956 418.707 192.222 417.848L188.146 413.076L208.695 395.523L212.804 400.333C213.538 401.192 214.831 401.293 215.692 400.557C216.554 399.821 216.657 398.528 215.923 397.669L173.149 347.595C172.415 346.735 171.122 346.635 170.26 347.371V347.371ZM190.088 373.74L169.539 391.293L164.222 385.07L184.772 367.516L190.088 373.74ZM172.197 394.405L192.746 376.852L198.063 383.076L177.513 400.629L172.197 394.405ZM176.797 358.181L182.114 364.404L161.564 381.958L156.248 375.734L176.797 358.181ZM185.488 409.964L180.171 403.741L200.721 386.187L206.037 392.411L185.488 409.964Z" fill="#333333"/>
<path d="M130.26 300.371C129.399 301.106 129.296 302.399 130.03 303.259L134.139 308.069L113.59 325.622L109.448 320.773C108.714 319.914 107.42 319.814 106.559 320.549C105.698 321.285 105.595 322.578 106.329 323.437L149.103 373.512C149.837 374.371 151.13 374.471 151.991 373.736C152.853 373 152.956 371.707 152.222 370.848L148.146 366.076L168.695 348.523L172.804 353.333C173.538 354.192 174.831 354.293 175.692 353.557C176.554 352.821 176.657 351.528 175.923 350.669L133.149 300.595C132.415 299.735 131.122 299.635 130.26 300.371V300.371ZM150.088 326.74L129.539 344.293L124.222 338.07L144.772 320.516L150.088 326.74ZM132.197 347.405L152.746 329.852L158.063 336.076L137.513 353.629L132.197 347.405ZM136.797 311.181L142.114 317.404L121.564 334.958L116.248 328.734L136.797 311.181ZM145.488 362.964L140.171 356.741L160.721 339.187L166.037 345.411L145.488 362.964Z" fill="#333333"/>
<path d="M36.2618 111.51C42.6754 120.006 22.1019 225.762 28.6418 259.289C35.0698 292.244 102.5 232.5 102 236C101.5 239.5 73.5273 269 58 280C42.4727 291 6.58435 291.346 10.443 237.154C14.3017 182.961 31.1638 146.62 24.2713 120.006C17.3788 93.3922 36.2618 111.51 36.2618 111.51Z" fill="#333333"/>
<path d="M28.5037 97.3256C31.318 91.8374 33.2811 87.445 39.622 89.5271C39.6655 89.5409 39.7089 89.5572 39.7523 89.5718C39.7957 89.5872 39.8392 89.6002 39.8913 89.6157C45.9543 91.6263 44.799 96.2825 43.3137 102.206C42.4537 105.614 46.3973 108.881 43.9304 115.425C40.6644 124.085 33.3593 121.26 28.4516 119.536C23.4657 118.003 15.8826 115.921 19.1486 107.261C21.6155 100.717 26.8794 100.484 28.5037 97.3256Z" fill="#333333"/>
<path d="M35.1338 441.698C35.1338 441.698 31.7502 436.724 26.3474 440.574C20.8694 444.476 18.9633 451.494 18.9633 451.494C18.9633 451.494 18.9284 453.287 19.9002 453.886C21.1661 454.664 32.9912 451.436 36.4726 445.678C36.4726 445.678 36.2272 443.118 35.1338 441.698Z" fill="#333333"/>
<path d="M189.574 606.209C164.208 598.267 98.6733 563.262 99.1753 534.881C99.642 508.491 132.137 504.324 138.792 530.802C144.479 553.426 111.722 567.999 96.8748 568.022C73.0818 568.828 63.1501 538.499 59.1248 516.129C56.0632 499.118 54.0636 481.916 50.3394 465.018C48.9233 458.593 47.0277 448.747 41.5182 445.162C39.7841 444.029 28.8973 446.886 29.0833 447.156C27.6786 445.105 36.0198 440.846 36.8406 440.615C41.4972 439.305 45.6934 442.04 48.7166 446.312C56.7423 457.785 59.1241 475.13 62.0455 488.891C66.5919 510.421 69.7143 555.654 95.6096 556.497C103.076 556.739 131.12 546.371 129.119 534.735C124.443 518.725 108.54 524.291 109.739 538.861C112.689 564.05 214.94 614.151 189.574 606.209Z" fill="#333333"/>
</svg>
